<?xml version="1.0" encoding="UTF-8" standalone="no"?>
<!-- Created with Inkscape (http://www.inkscape.org/) -->

<svg
   xmlns:dc="http://purl.org/dc/elements/1.1/"
   xmlns:cc="http://creativecommons.org/ns#"
   xmlns:rdf="http://www.w3.org/1999/02/22-rdf-syntax-ns#"
   xmlns:svg="http://www.w3.org/2000/svg"
   xmlns="http://www.w3.org/2000/svg"
   xmlns:sodipodi="http://sodipodi.sourceforge.net/DTD/sodipodi-0.dtd"
   xmlns:inkscape="http://www.inkscape.org/namespaces/inkscape"
   width="85mm"
   height="54mm"
   id="svg2998"
   version="1.1"
   inkscape:version="0.48.3.1 r9886"
   sodipodi:docname="logo.svg">
  <defs
     id="defs3" />
  <sodipodi:namedview
     id="base"
     pagecolor="#ffffff"
     bordercolor="#666666"
     borderopacity="1.0"
     inkscape:pageopacity="0.0"
     inkscape:pageshadow="2"
     inkscape:zoom="1.2"
     inkscape:cx="19.166667"
     inkscape:cy="90"
     inkscape:document-units="mm"
     inkscape:current-layer="layer1"
     showgrid="false"
     inkscape:window-width="1920"
     inkscape:window-height="1026"
     inkscape:window-x="0"
     inkscape:window-y="32"
     inkscape:window-maximized="1" />
  <metadata
     id="metadata3002">
    <rdf:RDF>
      <cc:Work
         rdf:about="">
        <dc:format>image/svg+xml</dc:format>
        <dc:type
           rdf:resource="http://purl.org/dc/dcmitype/StillImage" />
        <dc:title></dc:title>
      </cc:Work>
    </rdf:RDF>
  </metadata>
  <g
     inkscape:label="Layer 1"
     inkscape:groupmode="layer"
     id="layer1">
    <path
       sodipodi:type="arc"
       style="fill:#cccccc;stroke:#000000;stroke-opacity:1"
       id="path2985"
       sodipodi:cx="151.22858"
       sodipodi:cy="473.63235"
       sodipodi:rx="48.628269"
       sodipodi:ry="45.422009"
       d="m 199.85685,473.63235 a 48.628269,45.422009 0 1 1 -97.25654,0 48.628269,45.422009 0 1 1 97.25654,0 z"
       transform="matrix(0.67460759,0,0,0.722227,-49.61371,-244.99779)" />
    <path
       transform="matrix(0.67460759,0,0,0.722227,15.996293,-244.99779)"
       sodipodi:type="arc"
       style="fill:#cccccc;stroke:#000000;stroke-opacity:1"
       id="path2985-7"
       sodipodi:cx="151.22858"
       sodipodi:cy="473.63235"
       sodipodi:rx="48.628269"
       sodipodi:ry="45.422009"
       d="m 199.85685,473.63235 a 48.628269,45.422009 0 1 1 -97.25654,0 48.628269,45.422009 0 1 1 97.25654,0 z" />
    <rect
       style="fill:#ffffff;stroke:#000000;stroke-width:0.65609998;stroke-opacity:1"
       id="rect2987-7"
       width="65.610001"
       height="65.610001"
       x="52.406246"
       y="64.267265"
       ry="0" />
    <rect
       style="fill:#ffffff;stroke:#000000;stroke-width:0.73235142;stroke-opacity:1"
       id="rect3846"
       width="33.199699"
       height="9.816925"
       x="67.758934"
       y="74.756622" />
    <path
       sodipodi:type="arc"
       style="fill:#ffffff;stroke:#000000;stroke-opacity:1"
       id="path3848"
       sodipodi:cx="145.35043"
       sodipodi:cy="878.68982"
       sodipodi:rx="6.412519"
       sodipodi:ry="6.9468956"
       d="m 151.76295,878.68982 a 6.412519,6.9468956 0 1 1 -12.82504,0 6.412519,6.9468956 0 1 1 12.82504,0 z"
       transform="matrix(0.28555456,0,0,0.26358882,1.6253122,-156.41754)" />
    <path
       style="fill:none;stroke:#000000;stroke-width:0.75289416px;stroke-linecap:butt;stroke-linejoin:miter;stroke-opacity:1"
       d="m 84.614889,74.731888 0,10.518129 z"
       id="path3855"
       inkscape:connector-curvature="0" />
    <path
       style="fill:none;stroke:#000000;stroke-width:0.65609998px;stroke-linecap:butt;stroke-linejoin:miter;stroke-opacity:1"
       d="m 150.17793,89.457271 18.93264,-0.701207 z"
       id="path3857"
       inkscape:connector-curvature="0" />
    <path
       style="fill:none;stroke:#000000;stroke-width:0.65609998px;stroke-linecap:butt;stroke-linejoin:miter;stroke-opacity:1"
       d="m 149.82731,103.13085 18.93265,-0.70118 z"
       id="path3857-5"
       inkscape:connector-curvature="0" />
    <path
       sodipodi:type="star"
       style="fill:#b3b3b3;stroke:#000000;stroke-opacity:1"
       id="path3877"
       sodipodi:sides="3"
       sodipodi:cx="293.90714"
       sodipodi:cy="955.10565"
       sodipodi:r1="28.236128"
       sodipodi:r2="14.118063"
       sodipodi:arg1="1.056345"
       sodipodi:arg2="2.1035426"
       inkscape:flatsided="false"
       inkscape:rounded="0"
       inkscape:randomized="0"
       d="m 307.80093,979.68698 -21.06437,-12.41981 -21.06437,-12.4198 21.28805,-12.03238 21.28805,-12.03238 -0.22368,24.45219 z"
       inkscape:transform-center-x="4.5578583"
       inkscape:transform-center-y="0.084726814"
       transform="matrix(0.6561,0,0,0.6561,-17.411014,-530.87666)" />
    <path
       style="fill:none;stroke:#000000;stroke-width:0.65609998px;stroke-linecap:butt;stroke-linejoin:miter;stroke-opacity:1"
       d="m 195.7565,78.939135 0,33.658065 c 0,0 44.17618,-8.41456 49.78584,-2.80483 5.60966,5.60965 42.07253,-2.10366 42.07253,-2.10366 l -16.829,-10.518137 19.63385,-11.920556 c 0,0 -33.65804,4.908461 -47.68221,-2.103627 -14.02419,-7.012089 -46.98101,-4.207255 -46.98101,-4.207255 z"
       id="path3881"
       inkscape:connector-curvature="0" />
    <path
       style="fill:none;stroke:#000000;stroke-width:0.65609998px;stroke-linecap:butt;stroke-linejoin:miter;stroke-opacity:1"
       d="m 184.4923,81.743976 11.21933,0 z"
       id="path3883"
       inkscape:connector-curvature="0" />
    <path
       style="fill:none;stroke:#000000;stroke-width:0.65609998px;stroke-linecap:butt;stroke-linejoin:miter;stroke-opacity:1"
       d="m 184.53716,109.79237 10.51814,0 z"
       id="path3885"
       inkscape:connector-curvature="0" />
    <path
       style="fill:none;stroke:#000000;stroke-width:0.47623137px;stroke-linecap:butt;stroke-linejoin:miter;stroke-opacity:1"
       d="m 52.432384,64.213752 0,-10.974211 -6.940082,0 -0.495717,-8.883883 12.888724,4.18065 0,15.677444 z"
       id="path3903"
       inkscape:connector-curvature="0" />
    <path
       sodipodi:type="arc"
       style="fill:#ffffff;stroke:#000000;stroke-width:1.03999996;stroke-miterlimit:4;stroke-opacity:1;stroke-dasharray:none"
       id="path3924"
       sodipodi:cx="143.21292"
       sodipodi:cy="846.09283"
       sodipodi:rx="33.131348"
       sodipodi:ry="37.406361"
       d="m 117.83284,870.13718 a 33.131348,37.406361 0 0 1 0,-48.08869 l 25.38008,24.04434 z"
       sodipodi:start="2.443461"
       sodipodi:end="3.8397244"
       transform="matrix(0.9650727,0,0,0.8929197,-86.213881,-658.36046)" />
    <text
       xml:space="preserve"
       style="font-size:26.24400139px;font-style:normal;font-weight:normal;line-height:125%;letter-spacing:0px;word-spacing:0px;fill:#000000;fill-opacity:1;stroke:none;font-family:Sans"
       x="193.39075"
       y="76.508011"
       id="text3928"
       sodipodi:linespacing="125%"
       inkscape:transform-center-x="-4.8053283"
       inkscape:transform-center-y="7.798289"
       transform="matrix(1.0170094,0.12109792,0.07865313,0.99264052,0,0)"><tspan
         sodipodi:role="line"
         id="tspan3930"
         x="193.39075"
         y="76.508011">user</tspan></text>
  </g>
</svg>
